<?xml version="1.0" encoding="UTF-8"?>
<!DOCTYPE svg PUBLIC "-//W3C//DTD SVG 1.1//EN" "http://www.w3.org/Graphics/SVG/1.1/DTD/svg11.dtd">
<!-- Creator: CorelDRAW X7 -->
<svg xmlns="http://www.w3.org/2000/svg" xml:space="preserve" width="115.948mm" height="32.2642mm" version="1.1" style="shape-rendering:geometricPrecision; text-rendering:geometricPrecision; image-rendering:optimizeQuality; fill-rule:evenodd; clip-rule:evenodd"
viewBox="0 0 11595 3226"
 xmlns:xlink="http://www.w3.org/1999/xlink">
 <defs>
  <style type="text/css">
   <![CDATA[
    .fil4 {fill:none}
    .fil0 {fill:#373435}
    .fil2 {fill:#FFF212}
    .fil1 {fill:#ED3237}
    .fil3 {fill:#F8ED3F}
   ]]>
  </style>
 </defs>
 <g id="Camada_x0020_1">
  <metadata id="CorelCorpID_0Corel-Layer"/>
  <g id="_2696368863504">
   <g>
    <polygon class="fil0" points="8420,576 8420,963 8311,963 8311,576 "/>
    <polygon class="fil0" points="8639,576 8770,862 8770,576 8866,576 8866,963 8715,963 8584,673 8584,963 8488,963 8488,576 "/>
    <path class="fil0" d="M9030 837c0,2 0,3 0,5 0,2 0,3 1,5 0,1 0,2 0,2 0,1 0,2 0,3 1,1 1,2 1,3 0,1 0,1 1,2 1,5 3,9 5,13 3,4 7,8 11,12 4,3 10,6 16,8 7,2 15,2 24,2 9,0 18,0 25,-2 7,-2 14,-5 19,-8 5,-4 8,-8 11,-13 3,-4 4,-8 5,-13 0,0 0,-1 0,-1 0,0 0,-1 0,-1 -1,0 -1,0 -1,-1 0,0 0,0 0,-1 0,0 0,0 0,-1 0,0 0,0 0,-1 0,0 0,0 0,-1 0,0 0,-1 0,-1 -2,-4 -4,-8 -7,-12 -4,-4 -8,-7 -13,-11 -5,-4 -11,-7 -19,-10 -7,-2 -15,-5 -24,-6 -1,0 -1,0 -1,0 -1,0 -1,0 -2,0 0,0 0,0 -1,-1 0,0 0,0 -1,0 -28,-7 -52,-13 -72,-20 -19,-8 -34,-15 -45,-23 -10,-8 -18,-19 -24,-31 -5,-13 -9,-27 -10,-43 0,-1 0,-2 0,-2 0,-1 0,-1 0,-2 0,0 0,0 0,0 0,-1 0,-1 0,-1 0,-1 0,-1 0,-1 0,-19 4,-36 12,-50 8,-15 20,-27 36,-37 16,-9 33,-17 53,-22 19,-5 40,-7 63,-7 32,1 58,5 79,11 21,6 36,15 46,26 10,11 18,24 23,38 5,14 8,30 8,47l-109 -1c0,-6 -1,-12 -4,-16 -2,-5 -5,-10 -9,-14 -4,-4 -10,-7 -16,-9 -7,-2 -14,-3 -22,-3 -8,0 -14,1 -20,3 -6,2 -10,5 -14,8 -4,4 -7,7 -9,11 -2,4 -3,8 -3,12 0,0 0,1 0,1 0,0 0,1 0,1 0,1 0,1 0,1 0,0 0,0 0,1 1,3 2,7 4,11 2,3 5,7 9,10 4,4 8,7 14,9 5,2 12,3 19,4 4,1 8,1 12,2 4,1 9,2 13,3 4,1 9,1 13,2 4,1 8,2 13,3 15,4 29,8 43,14 14,6 28,13 40,21 13,8 22,18 29,31 6,13 9,28 9,46 0,23 -4,43 -12,60 -8,16 -21,30 -37,40 -17,10 -35,17 -55,22 -19,5 -41,7 -64,7 -28,0 -53,-2 -74,-8 -21,-5 -39,-14 -53,-25 -14,-11 -25,-25 -33,-42 -7,-17 -11,-36 -12,-58l0 -1 109 0z"/>
    <polygon class="fil0" points="9639,576 9639,656 9518,656 9518,963 9412,963 9412,656 9291,656 9291,576 "/>
    <polygon class="fil0" points="9787,576 9787,963 9677,963 9677,576 "/>
    <polygon class="fil0" points="10173,576 10173,656 10052,656 10052,963 9946,963 9946,656 9825,656 9825,576 "/>
    <path class="fil0" d="M10325 576l0 227c0,15 1,27 4,38 3,12 7,22 13,30 6,9 14,15 24,19 9,5 21,7 34,7 16,0 29,-2 40,-7 11,-4 19,-11 24,-19 5,-9 9,-20 12,-31 3,-12 4,-25 4,-40l0 -224 110 0 0 240c0,23 -4,45 -11,64 -8,19 -19,36 -33,51 -15,15 -35,27 -59,34 -24,7 -53,11 -87,11 -28,0 -53,-4 -76,-11 -22,-7 -42,-18 -59,-33 -16,-15 -29,-32 -37,-50 -8,-19 -12,-39 -12,-61l0 -245 109 0z"/>
    <polygon class="fil0" points="10976,576 10976,656 10855,656 10855,963 10750,963 10750,656 10628,656 10628,576 "/>
    <path class="fil0" d="M11121 816c4,14 9,28 17,41 7,13 17,23 29,30 11,6 25,10 41,10 13,0 25,-3 36,-8 10,-5 19,-13 26,-24 7,-10 13,-23 16,-39 4,-16 6,-34 6,-55 0,-17 -2,-33 -5,-48 -3,-14 -9,-28 -16,-40 -7,-13 -16,-22 -27,-29 -11,-6 -25,-9 -41,-9 -15,0 -29,3 -40,10 -11,6 -19,16 -26,29 -6,13 -11,27 -15,42 -3,14 -6,29 -7,45l0 -1c0,16 2,31 6,46zm-107 -116c7,-24 16,-46 29,-68 13,-21 33,-36 61,-47 27,-11 62,-16 104,-16 0,0 1,0 1,0 1,0 1,0 2,0 0,0 1,0 1,0 1,0 1,0 2,0 0,0 1,0 1,0 0,0 1,0 2,0 0,0 1,0 1,0 1,0 1,0 1,0 24,1 46,5 67,12 21,7 42,18 61,31 19,14 34,34 44,60 9,27 14,60 14,99 0,5 0,10 0,16 0,5 -1,11 -1,16 -1,3 -1,6 -1,9 -1,3 -1,6 -1,8 -1,4 -2,7 -2,9 -1,3 -2,6 -2,9 -4,17 -11,33 -20,49 -9,15 -21,29 -34,43 -14,14 -31,25 -53,31 -22,7 -48,10 -79,10 -41,0 -74,-4 -102,-14 -27,-9 -47,-23 -61,-43 -14,-19 -25,-39 -33,-60 -7,-21 -12,-44 -14,-67 0,-1 0,-1 0,-1 0,-1 0,-1 0,-2 0,0 0,-1 0,-1 0,-1 0,-1 0,-2 0,-1 0,-2 0,-3 0,-1 0,-2 0,-3l0 -1c1,-26 5,-51 12,-74z"/>
    <path class="fil0" d="M8479 1528c18,1 33,-2 46,-7 13,-5 24,-13 33,-24 9,-10 16,-21 21,-33 5,-12 8,-24 9,-37 0,0 0,-1 0,-1 0,0 0,-1 1,-2 0,0 0,-1 0,-1 0,-1 0,-1 0,-1 0,-1 0,-2 0,-2 0,0 0,-1 0,-2 0,0 0,0 0,-1 0,0 0,-1 0,-1 0,-1 0,-2 0,-2 0,-1 0,-2 0,-3 -1,-1 -1,-1 -1,-2 0,-1 0,-2 0,-2 0,-2 0,-4 0,-5 0,-2 -1,-4 -1,-5 -2,-12 -6,-24 -12,-36 -5,-11 -13,-22 -22,-32 -9,-11 -19,-18 -31,-24 -12,-5 -25,-7 -39,-7l-58 -1 0 231 54 0zm0 -311c44,1 81,6 111,16 29,10 51,24 66,44 15,19 27,41 34,63 8,23 12,47 12,73 0,0 0,1 0,2 0,0 0,0 0,1 0,0 0,0 0,1 0,0 0,1 0,1 0,1 0,1 0,1 0,1 0,1 0,2 0,0 0,1 0,2 0,0 0,1 0,2 0,0 0,1 0,1 0,1 0,1 0,2 -1,31 -7,57 -17,80 -9,22 -23,40 -42,54 -18,14 -38,25 -58,32 -21,6 -42,10 -64,10l-206 0 0 -387 164 0z"/>
    <polygon class="fil0" points="9051,1217 9051,1297 8866,1297 8866,1372 9039,1372 9039,1453 8866,1453 8866,1528 9051,1528 9051,1604 8757,1604 8757,1217 "/>
    <polygon class="fil0" points="9585,1217 9585,1297 9400,1297 9400,1372 9573,1372 9573,1453 9400,1453 9400,1528 9585,1528 9585,1604 9291,1604 9291,1217 "/>
    <polygon class="fil0" points="9799,1217 9930,1503 9930,1217 10027,1217 10027,1604 9875,1604 9745,1314 9745,1604 9648,1604 9648,1217 "/>
    <path class="fil0" d="M10190 1478c0,1 0,3 0,5 0,1 1,3 1,5 0,1 0,1 0,2 0,1 1,2 1,3 0,1 0,2 0,3 1,0 1,1 1,2 1,5 3,9 6,13 2,4 6,8 10,12 4,3 10,6 17,8 6,1 14,2 23,2 10,0 18,-1 26,-2 7,-2 13,-5 18,-8 5,-4 9,-8 11,-13 3,-4 5,-8 5,-13 0,0 0,-1 0,-1 0,-1 0,-1 0,-1 0,0 -1,0 -1,-1 0,0 0,0 0,-1 0,0 0,-1 0,-1 0,0 0,-1 0,-1 0,0 0,-1 0,-1 0,0 0,-1 0,-1 -2,-4 -4,-8 -7,-12 -3,-4 -7,-7 -12,-11 -6,-4 -12,-7 -19,-10 -8,-3 -16,-5 -25,-7 0,0 -1,0 -1,0 -1,0 -1,0 -1,0 -1,0 -1,0 -1,0 -1,0 -1,0 -1,-1 -29,-6 -53,-12 -72,-20 -20,-7 -35,-15 -45,-22 -11,-9 -19,-19 -24,-31 -6,-13 -9,-27 -10,-44 0,0 0,-1 0,-2 0,0 0,0 0,-1 0,0 0,0 0,-1 0,0 0,0 0,0 0,-1 0,-1 0,-2 -1,-18 3,-35 11,-49 8,-15 20,-27 36,-37 16,-10 34,-17 53,-22 20,-5 41,-7 63,-7 32,1 58,4 79,11 21,6 36,15 46,26 11,11 18,24 24,38 5,14 7,30 7,46l-109 -1c0,-5 -1,-11 -3,-16 -2,-5 -6,-9 -10,-13 -4,-4 -10,-7 -16,-9 -6,-2 -14,-3 -22,-3 -7,0 -14,1 -20,3 -5,2 -10,4 -14,8 -4,3 -6,7 -9,11 -2,4 -3,8 -3,12 0,0 0,1 0,1 0,0 0,1 0,1 0,0 0,1 0,1 0,0 0,0 0,1 1,3 2,7 5,11 2,3 5,7 8,10 4,3 9,6 14,8 6,3 12,4 19,5 4,0 8,1 12,2 5,1 9,2 13,3 5,0 9,1 13,2 4,1 9,2 13,3 15,3 30,8 44,14 14,5 27,12 40,21 12,7 22,18 28,31 6,13 10,28 10,46 0,23 -4,43 -13,60 -8,16 -20,30 -37,40 -16,10 -34,17 -54,22 -20,5 -41,7 -65,7 -28,0 -52,-3 -74,-8 -21,-6 -39,-14 -53,-25 -14,-11 -25,-25 -32,-42 -8,-17 -12,-36 -13,-58l0 -1 109 0z"/>
    <polygon class="fil0" points="10590,1217 10590,1604 10480,1604 10480,1217 "/>
    <polygon class="fil0" points="10808,1217 10939,1503 10939,1217 11036,1217 11036,1604 10884,1604 10754,1314 10754,1604 10657,1604 10657,1217 "/>
    <path class="fil0" d="M11210 1457c3,14 9,28 16,41 8,13 17,23 29,30 12,6 26,9 41,9 14,0 26,-2 36,-7 11,-5 20,-13 27,-24 7,-10 12,-23 16,-39 4,-16 6,-35 6,-56 0,-16 -2,-32 -5,-47 -4,-15 -9,-28 -16,-41 -7,-12 -16,-22 -27,-28 -12,-6 -25,-10 -41,-10 -16,0 -29,4 -40,10 -11,7 -20,17 -26,30 -7,13 -12,27 -15,41 -4,15 -6,30 -7,45l0 -1c0,17 2,32 6,47zm-108 -117c7,-23 17,-45 30,-67 13,-21 33,-37 60,-47 28,-11 62,-16 104,-16 1,0 2,0 2,0 0,0 1,0 1,0 1,0 1,0 2,0 0,0 1,0 1,0 1,0 1,0 2,0 0,0 1,0 1,0 1,0 1,0 2,0 0,0 1,0 1,0 23,1 45,5 67,12 21,7 41,17 61,31 19,13 33,33 43,60 10,26 15,59 15,98 0,6 0,11 0,16 -1,6 -1,11 -2,17 0,3 0,6 -1,9 0,2 0,5 -1,8 -1,3 -1,6 -2,9 0,3 -1,6 -2,9 -4,17 -11,33 -20,48 -9,16 -20,30 -34,44 -13,14 -31,24 -53,31 -22,7 -48,10 -78,10 -41,0 -75,-4 -102,-14 -27,-9 -47,-24 -61,-43 -14,-19 -25,-39 -33,-61 -8,-21 -12,-43 -14,-67 0,0 0,0 0,-1 0,0 0,0 0,-1 -1,-1 -1,-1 -1,-2 0,0 0,0 0,-1 0,-1 0,-2 0,-3 0,-1 0,-2 0,-3l0 -1c1,-26 5,-51 12,-75z"/>
    <path class="fil0" d="M8407 2118c0,2 0,4 0,6 0,1 1,3 1,5 0,0 0,1 0,2 0,1 1,2 1,2 0,1 0,2 0,3 1,1 1,2 1,3 1,4 3,9 6,13 2,4 6,7 10,11 4,4 10,7 17,8 7,2 14,3 23,3 10,0 18,-1 26,-3 7,-1 13,-4 18,-8 5,-4 9,-8 12,-12 2,-4 4,-9 4,-13 0,-1 0,-1 0,-1 0,-1 0,-1 0,-1 0,0 0,-1 0,-1 0,0 0,-1 0,-1 0,0 0,-1 0,-1 0,0 0,-1 0,-1 -1,-1 -1,-1 -1,-1 0,-1 0,-1 0,-1 -1,-4 -4,-8 -7,-12 -3,-4 -7,-8 -12,-11 -6,-4 -12,-7 -19,-10 -7,-3 -16,-5 -25,-7 0,0 -1,0 -1,0 0,0 -1,0 -1,0 0,0 -1,0 -1,0 -1,0 -1,-1 -1,-1 -29,-6 -53,-13 -72,-20 -20,-7 -35,-15 -45,-23 -11,-8 -19,-18 -24,-31 -6,-12 -9,-26 -10,-43 0,-1 0,-1 0,-2 0,0 0,-1 0,-1 0,0 0,-1 0,-1 0,0 0,0 0,-1 0,0 0,0 0,-1 -1,-19 3,-35 11,-50 8,-14 20,-26 36,-36 16,-10 34,-17 53,-22 20,-5 41,-8 63,-8 32,1 58,5 79,11 21,7 37,15 46,27 11,11 19,23 24,38 5,14 7,29 7,46l-109 -1c0,-6 -1,-11 -3,-16 -2,-5 -6,-9 -10,-13 -4,-4 -9,-7 -16,-9 -6,-2 -14,-3 -22,-3 -7,0 -14,1 -20,3 -5,1 -10,4 -14,8 -3,3 -6,7 -9,11 -2,3 -3,7 -3,12 0,0 0,0 0,1 0,0 0,0 0,1 0,0 0,0 0,1 0,0 0,0 0,0 1,4 2,8 5,11 2,4 5,8 8,11 4,3 9,6 14,8 6,2 12,4 19,5 4,0 8,1 13,2 4,1 8,2 12,2 5,1 9,2 13,3 4,1 9,2 14,3 14,3 29,8 43,14 14,5 27,12 40,20 12,8 22,19 28,32 6,13 10,28 10,46 0,23 -4,43 -13,59 -8,17 -20,30 -37,41 -16,10 -34,17 -54,22 -20,5 -41,7 -65,7 -28,0 -52,-3 -74,-8 -21,-6 -39,-14 -53,-25 -14,-11 -25,-26 -32,-42 -8,-17 -12,-36 -13,-58l0 -2 109 0z"/>
    <path class="fil0" d="M8811 1858l0 227c0,14 2,27 5,38 2,11 7,21 12,30 6,8 14,15 24,19 9,4 21,6 35,6 15,0 28,-2 39,-6 11,-4 19,-11 24,-20 5,-9 9,-19 12,-31 3,-12 5,-25 5,-39l0 -224 109 0 0 239c0,24 -4,46 -11,65 -8,19 -19,36 -33,51 -15,15 -35,26 -59,33 -24,8 -53,11 -86,11 -29,0 -54,-3 -77,-10 -22,-7 -42,-19 -59,-33 -16,-15 -28,-32 -37,-51 -8,-18 -12,-38 -12,-61l0 -244 109 0z"/>
    <path class="fil0" d="M9257 2030l50 0c11,1 20,0 27,-3 8,-2 15,-5 20,-10 6,-5 10,-10 12,-16 3,-6 4,-13 4,-20 0,-8 -1,-16 -5,-22 -3,-6 -8,-11 -15,-14 -7,-4 -14,-6 -23,-8 -9,-2 -18,-3 -28,-3l-42 -1 0 97zm80 -172c26,1 49,4 67,9 19,5 34,13 46,23 11,10 20,23 25,38 6,15 9,33 9,53 0,20 -3,38 -9,53 -5,15 -14,27 -25,36 -11,9 -23,17 -36,22 -12,6 -25,10 -39,12 -3,0 -6,1 -8,1 -3,1 -6,1 -9,1 -3,1 -6,1 -9,1 -2,0 -5,0 -8,0l-84 -1 0 138 -109 0 0 -386 189 0z"/>
    <polygon class="fil0" points="9824,1858 9824,1937 9639,1937 9639,2013 9812,2013 9812,2093 9639,2093 9639,2169 9824,2169 9824,2244 9530,2244 9530,1858 "/>
    <path class="fil0" d="M9992 2022l43 0c0,1 1,1 2,1 1,0 2,0 2,0 1,0 2,0 3,0 1,0 2,0 3,0 6,0 12,-1 18,-3 6,-2 12,-4 18,-6 5,-3 9,-7 12,-12 3,-6 5,-13 5,-21 0,-7 -2,-14 -5,-19 -3,-5 -7,-10 -13,-13 -5,-4 -12,-6 -19,-8 -7,-2 -15,-2 -23,-2l-46 -2 0 85zm63 -164c1,1 2,1 3,1 1,0 1,0 2,0 1,0 2,0 3,0 0,0 1,0 3,0 18,0 35,2 52,6 16,3 32,8 47,15 15,7 27,17 34,30 8,13 12,30 12,50 0,16 -2,29 -7,41 -4,11 -11,21 -21,28 -8,7 -18,13 -29,17 -11,5 -23,8 -36,11 19,0 35,4 46,10 12,7 20,16 25,28 4,12 8,25 11,38 3,13 6,27 7,41 0,0 0,1 0,1 0,0 0,1 0,1 0,0 0,1 0,1 0,1 0,1 1,1 0,6 1,12 1,18 1,6 2,11 2,18 1,5 2,11 3,16 2,5 3,10 5,14l-117 0c-2,-2 -3,-6 -4,-10 -1,-4 -1,-8 -2,-12 0,-5 -1,-10 -1,-15 -1,-4 -1,-9 -1,-14 0,-1 0,-2 0,-2 0,0 0,-1 0,-2 -1,0 -1,0 -1,-1 0,0 0,-1 0,-1 0,-1 0,-2 0,-3 0,-1 0,-3 0,-4 0,-10 -2,-20 -3,-29 -2,-10 -5,-19 -7,-27 -3,-9 -8,-15 -15,-19 -7,-5 -15,-7 -25,-7l-51 -1 0 147 -109 0 0 -386 172 0z"/>
    <polygon class="fil0" points="10383,1858 10383,2244 10274,2244 10274,1858 "/>
    <path class="fil0" d="M10557 2097c4,15 9,29 17,42 7,13 17,23 29,29 11,7 25,10 41,10 13,0 25,-2 36,-7 10,-6 19,-14 26,-24 7,-11 13,-24 17,-39 3,-16 5,-35 5,-56 0,-16 -1,-32 -5,-47 -3,-15 -9,-28 -16,-41 -6,-12 -15,-22 -27,-28 -11,-7 -25,-10 -40,-10 -16,0 -29,4 -40,10 -12,7 -20,17 -27,30 -6,13 -11,27 -15,41 -3,15 -6,30 -7,45l0 -1c0,17 2,32 6,46zm-107 -116c7,-23 17,-46 29,-67 13,-21 33,-37 61,-48 27,-10 62,-16 104,-16 1,0 1,0 1,0 1,0 1,0 2,0 0,0 1,0 1,0 1,0 1,0 2,0 0,0 1,0 1,0 1,0 1,0 2,0 0,0 1,0 1,0 1,0 1,0 2,0 23,1 45,6 66,13 22,7 42,17 61,31 19,13 34,33 44,60 10,26 14,59 14,98 0,6 0,11 0,16 0,6 -1,11 -1,17 -1,3 -1,6 -1,8 -1,3 -1,6 -1,9 -1,3 -2,6 -2,9 -1,3 -1,6 -2,9 -4,17 -11,33 -20,48 -9,15 -20,30 -34,44 -14,14 -31,24 -53,31 -22,7 -48,10 -79,10 -40,0 -74,-5 -101,-14 -27,-10 -48,-24 -62,-43 -14,-19 -25,-40 -32,-61 -8,-21 -13,-43 -15,-67 0,0 0,0 0,-1 0,0 0,-1 0,-1 0,-1 0,-1 0,-2 0,0 0,-1 0,-1 0,-1 0,-2 0,-3 0,-1 0,-2 0,-3l0 -2c1,-26 5,-50 12,-74z"/>
    <path class="fil0" d="M11002 2022l42 0c0,1 1,1 2,1 1,0 2,0 3,0 0,0 1,0 2,0 1,0 2,0 3,0 6,0 13,-1 19,-3 6,-2 11,-4 17,-6 6,-3 10,-7 12,-12 3,-6 5,-13 5,-21 0,-7 -2,-14 -5,-19 -2,-5 -7,-10 -12,-13 -6,-4 -12,-6 -20,-8 -7,-2 -14,-2 -23,-2l-45 -2 0 85zm63 -164c0,1 1,1 2,1 1,0 2,0 2,0 1,0 2,0 3,0 1,0 2,0 3,0 18,0 35,2 52,6 16,3 32,8 48,15 15,7 26,17 33,30 8,13 12,30 12,50 0,16 -2,29 -7,41 -4,11 -11,21 -20,28 -9,7 -19,13 -30,17 -11,5 -23,8 -35,11 18,0 34,4 45,10 12,7 20,16 25,28 5,12 8,25 12,38 3,13 5,27 6,41 0,0 0,1 0,1 0,0 0,1 0,1 0,0 0,1 0,1 0,1 0,1 1,1 0,6 1,12 2,18 0,6 1,11 2,18 0,5 1,11 3,16 1,5 3,10 5,14l-118 0c-1,-2 -3,-6 -3,-10 -1,-4 -2,-8 -3,-12 0,-5 -1,-10 -1,-15 0,-4 -1,-9 -1,-14 0,-1 0,-2 0,-2 0,0 0,-1 0,-2 0,0 -1,0 -1,-1 0,0 0,-1 0,-1 0,-1 0,-2 0,-3 0,-1 0,-3 0,-4 0,-10 -2,-20 -3,-29 -2,-10 -4,-19 -7,-27 -3,-9 -8,-15 -15,-19 -6,-5 -15,-7 -25,-7l-50 -1 0 147 -110 0 0 -386 173 0z"/>
    <path class="fil0" d="M8479 2809c18,1 33,-1 46,-6 13,-5 24,-13 33,-24 9,-11 16,-22 21,-34 5,-11 8,-24 9,-36 0,-1 0,-1 0,-2 0,0 0,0 1,-1 0,-1 0,-1 0,-1 0,-1 0,-1 0,-2 0,-1 0,-1 0,-1 0,-1 0,-1 0,-2 0,0 0,-1 0,-1 0,-1 0,-1 0,-2 0,0 0,-1 0,-2 0,-1 0,-1 0,-3 -1,0 -1,-1 -1,-2 0,0 0,-1 0,-2 0,-2 0,-3 0,-5 0,-1 -1,-3 -1,-4 -2,-13 -6,-25 -12,-36 -5,-12 -13,-22 -22,-33 -9,-10 -19,-18 -31,-23 -12,-5 -25,-8 -39,-8l-58 -1 0 231 54 0zm0 -310c44,0 81,6 111,15 29,10 51,25 66,44 15,20 27,41 34,64 8,23 12,47 12,73 0,0 0,1 0,1 0,1 0,1 0,1 0,1 0,1 0,1 0,1 0,1 0,2 0,0 0,1 0,1 0,0 0,1 0,1 0,1 0,2 0,2 0,1 0,2 0,2 0,1 0,1 0,2 0,0 0,1 0,2 -1,30 -7,57 -17,79 -9,23 -23,41 -42,55 -18,14 -38,24 -58,31 -21,7 -42,10 -64,10l-206 0 0 -386 164 0z"/>
    <polygon class="fil0" points="9051,2499 9051,2578 8866,2578 8866,2654 9039,2654 9039,2734 8866,2734 8866,2809 9051,2809 9051,2885 8757,2885 8757,2499 "/>
    <polygon class="fil0" points="9400,2499 9400,2885 9291,2885 9291,2499 "/>
    <polygon class="fil0" points="9787,2499 9787,2578 9665,2578 9665,2885 9560,2885 9560,2578 9438,2578 9438,2499 "/>
    <path class="fil0" d="M9976 2578l-50 156 96 0 -46 -156zm71 -79l152 386 -122 0 -25 -71 -151 0 -26 71 -113 0 155 -386 130 0z"/>
    <path class="fil0" d="M10355 2671l50 0c10,0 19,0 27,-3 8,-2 15,-6 20,-10 5,-5 9,-11 12,-17 3,-5 4,-12 4,-20 0,-8 -2,-15 -5,-21 -3,-6 -8,-11 -15,-14 -7,-4 -15,-7 -23,-8 -9,-2 -18,-3 -28,-3l-42 -1 0 97zm80 -172c26,0 48,3 67,8 19,6 34,13 46,24 11,10 20,22 25,38 6,15 9,33 9,52 0,21 -3,39 -9,54 -5,15 -14,27 -25,36 -11,9 -23,16 -36,22 -12,6 -26,10 -39,12 -3,0 -6,1 -9,1 -2,1 -5,1 -8,1 -3,0 -6,0 -9,0 -3,0 -5,0 -8,0l-84 -1 0 139 -110 0 0 -386 190 0z"/>
    <polygon class="fil0" points="10737,2499 10737,2885 10628,2885 10628,2499 "/>
    <path class="fil0" d="M10910 2663l42 0c1,0 1,1 2,1 1,0 2,0 3,0 0,0 1,0 2,0 1,0 2,0 3,0 6,-1 13,-2 19,-3 6,-2 12,-4 17,-6 6,-3 10,-7 13,-13 2,-5 4,-12 4,-21 0,-7 -2,-13 -4,-18 -3,-6 -8,-10 -13,-14 -6,-3 -12,-5 -19,-7 -8,-2 -15,-3 -23,-3l-46 -1 0 85zm63 -164c0,0 1,1 2,1 1,0 2,0 2,0 1,0 2,0 3,0 1,0 2,0 3,0 18,0 35,2 52,6 16,3 32,8 48,15 15,6 26,16 34,30 7,13 11,30 11,50 0,15 -2,29 -7,40 -4,12 -11,21 -20,29 -9,7 -19,13 -30,17 -11,5 -23,8 -35,10 19,1 34,5 46,11 11,6 20,16 24,28 5,12 9,24 12,38 3,13 5,27 6,41 0,0 0,0 0,1 0,0 0,1 0,1 0,0 0,1 0,1 0,0 0,1 1,1 1,6 1,12 2,17 0,6 1,12 2,18 0,6 1,11 3,17 1,5 3,10 5,14l-118 0c-1,-3 -2,-6 -3,-10 -1,-4 -2,-8 -3,-13 0,-4 0,-9 -1,-14 0,-5 0,-10 -1,-15 0,0 0,-1 0,-1 0,0 0,-1 0,-2 0,0 0,-1 0,-1 0,-1 0,-1 0,-1 0,-1 0,-3 0,-4 0,-1 0,-2 0,-3 -1,-10 -2,-20 -4,-29 -2,-10 -4,-19 -7,-27 -3,-9 -8,-15 -15,-20 -6,-4 -15,-6 -25,-6l-50 -1 0 147 -110 0 0 -386 173 0z"/>
    <path class="fil0" d="M11372 2578l-51 156 97 0 -46 -156zm71 -79l152 386 -122 0 -26 -71 -151 0 -25 71 -114 0 156 -386 130 0z"/>
   </g>
   <path class="fil1" d="M191 914c303,-764 2253,-1027 4357,-589 2082,434 3533,1392 3268,2152 4,-8 7,-16 11,-23 312,-789 -1177,-1792 -3327,-2240 -2149,-447 -4146,-171 -4459,618 -312,789 1177,1792 3327,2239 14,3 28,6 42,9 -2081,-442 -3519,-1408 -3219,-2166z"/>
   <path class="fil1" d="M7526 2460c-292,676 -2100,867 -4036,426 -1917,-436 -3242,-1328 -2985,-2001 -3,6 -7,13 -10,20 -302,699 1057,1631 3036,2081 712,162 1406,240 2018,240 1092,2 1921,-242 2114,-689 303,-699 -1056,-1631 -3035,-2081 -13,-3 -26,-6 -39,-9 1915,444 3228,1342 2937,2013z"/>
   <polygon class="fil2" points="1602,700 1602,2681 1041,2681 1041,700 "/>
   <polygon class="fil2" points="3455,700 3455,1108 2508,1108 2508,1496 3392,1496 3392,1907 2508,1907 2508,2293 3455,2293 3455,2681 1947,2681 1947,700 "/>
   <path class="fil2" d="M4274 2035c0,10 0,18 0,26 0,9 1,17 3,26 0,4 0,8 1,13 1,4 1,8 1,12 2,6 3,11 4,15 1,5 3,9 4,12 6,24 16,46 29,66 14,20 32,40 54,60 21,19 50,32 84,41 35,10 75,14 121,14 49,0 92,-4 130,-14 37,-9 69,-22 94,-41 26,-20 45,-41 59,-63 14,-21 22,-44 23,-68 0,-2 0,-4 0,-5 0,-2 0,-4 0,-6 -1,0 -2,-1 -2,-3 0,-2 0,-3 0,-5 0,-2 0,-4 0,-6 0,-1 0,-3 0,-5 -2,-2 -3,-4 -3,-6 0,-1 0,-3 0,-5 -7,-20 -19,-40 -36,-60 -16,-20 -37,-40 -63,-58 -27,-20 -59,-37 -97,-50 -37,-14 -80,-25 -127,-35 -2,0 -4,0 -6,0 -1,0 -3,0 -5,0 -2,0 -4,0 -5,-1 -2,-1 -4,-2 -6,-4 -146,-31 -269,-65 -369,-103 -101,-37 -177,-76 -230,-116 -53,-42 -94,-95 -124,-159 -29,-64 -46,-138 -52,-222 0,-3 0,-6 0,-9 0,-3 0,-5 0,-7 0,-2 0,-3 0,-4 0,-1 0,-2 0,-4 0,-2 0,-4 0,-6 -1,-96 18,-182 59,-256 41,-73 103,-136 185,-187 82,-49 173,-87 272,-112 100,-26 208,-39 325,-39 162,6 297,25 403,57 107,31 186,77 237,135 53,57 93,121 119,194 27,73 40,153 40,238l-561 -5c0,-29 -6,-57 -17,-82 -10,-26 -27,-48 -49,-69 -22,-20 -49,-35 -82,-45 -33,-10 -70,-15 -112,-15 -38,0 -72,5 -101,14 -30,9 -54,23 -74,41 -19,18 -33,37 -44,56 -11,19 -17,40 -17,62 0,2 0,3 0,5 0,2 0,4 0,6 0,1 0,3 0,4 0,1 0,2 0,4 4,18 11,37 22,56 11,19 26,37 44,53 20,19 44,33 73,44 28,11 60,18 97,22 20,4 41,8 63,12 22,5 44,9 66,13 21,3 43,7 65,12 22,5 45,10 69,15 76,18 150,42 221,71 71,29 140,65 206,107 63,40 112,93 145,160 33,67 49,146 49,237 0,118 -21,220 -63,305 -42,85 -106,154 -192,207 -84,51 -176,89 -277,113 -102,25 -212,37 -330,37 -144,0 -271,-14 -381,-42 -109,-29 -199,-71 -271,-128 -73,-58 -128,-130 -167,-216 -38,-85 -60,-185 -65,-298l0 -6 561 0z"/>
   <polygon class="fil2" points="6321,700 6321,2681 5760,2681 5760,700 "/>
   <polygon class="fil3" points="1837,492 1837,2474 1276,2474 1276,492 "/>
   <polygon class="fil3" points="3690,492 3690,900 2743,900 2743,1288 3627,1288 3627,1699 2743,1699 2743,2085 3690,2085 3690,2474 2182,2474 2182,492 "/>
   <path class="fil3" d="M4509 1828c0,9 0,17 0,26 0,8 0,17 2,26 0,3 1,7 2,12 1,5 1,9 1,12 2,6 3,11 4,15 1,5 2,9 4,13 6,23 15,45 29,65 14,21 31,41 53,61 22,18 51,32 85,41 35,9 75,13 121,13 49,0 92,-4 130,-13 37,-9 69,-23 94,-41 26,-20 45,-41 59,-63 14,-22 21,-45 23,-69 0,-2 0,-3 0,-5 0,-2 0,-4 0,-6 -2,0 -3,-1 -3,-2 0,-2 0,-4 0,-6 0,-2 0,-4 0,-5 0,-2 0,-4 0,-6 -1,-2 -2,-3 -2,-5 0,-2 0,-4 0,-6 -8,-20 -19,-40 -36,-60 -16,-20 -37,-39 -63,-58 -27,-20 -60,-36 -97,-50 -37,-14 -80,-25 -127,-34 -2,0 -4,0 -6,0 -2,0 -3,0 -5,0 -2,0 -4,-1 -6,-2 -1,-1 -3,-2 -5,-4 -146,-31 -269,-65 -370,-102 -100,-38 -177,-77 -230,-117 -53,-42 -94,-95 -123,-159 -29,-63 -46,-137 -52,-221 0,-4 0,-7 0,-10 0,-3 0,-5 0,-7 0,-2 0,-3 0,-4 0,-1 0,-2 0,-4 0,-2 0,-4 0,-5 -2,-97 18,-182 59,-256 41,-74 103,-137 185,-188 82,-49 173,-86 272,-112 100,-26 208,-38 325,-38 162,5 297,24 403,56 107,32 186,77 237,135 53,57 93,122 119,195 27,73 40,152 40,238l-561 -6c0,-29 -6,-56 -17,-82 -11,-25 -27,-48 -49,-68 -22,-20 -49,-35 -82,-45 -33,-10 -70,-16 -112,-16 -39,0 -72,5 -102,14 -29,9 -53,23 -74,41 -18,18 -32,37 -43,56 -11,20 -17,40 -17,62 0,2 0,4 0,5 0,2 0,4 0,6 0,2 0,3 0,4 0,1 0,2 0,4 4,18 11,37 22,56 11,19 26,37 44,54 20,18 44,32 73,43 28,11 60,19 97,22 20,4 41,8 63,13 22,4 43,8 65,12 22,4 44,8 66,12 22,5 45,10 68,15 77,19 151,42 222,71 71,30 140,65 205,107 64,40 113,94 145,160 33,67 50,146 50,237 0,119 -21,220 -63,305 -42,85 -106,154 -192,207 -84,51 -176,89 -278,114 -101,24 -211,36 -329,36 -145,0 -271,-14 -381,-42 -109,-28 -200,-71 -271,-127 -73,-59 -129,-131 -167,-216 -38,-86 -60,-186 -66,-299l0 -5 562 0z"/>
   <polygon class="fil3" points="6556,492 6556,2474 5995,2474 5995,492 "/>
   <polygon class="fil1" points="1724,597 1724,2579 1163,2579 1163,597 "/>
   <polygon class="fil1" points="3577,597 3577,1005 2630,1005 2630,1394 3514,1394 3514,1804 2630,1804 2630,2190 3577,2190 3577,2579 2069,2579 2069,597 "/>
   <path class="fil1" d="M4396 1933c0,9 0,18 0,26 0,8 0,17 2,26 0,4 1,8 2,12 1,5 1,9 1,13 2,5 3,10 4,15 1,4 2,8 4,12 6,24 15,46 29,66 14,20 31,40 53,60 22,18 50,32 85,41 35,9 75,14 121,14 49,0 92,-5 130,-14 37,-9 68,-23 94,-41 26,-20 45,-41 59,-63 14,-22 21,-45 23,-68 0,-2 0,-4 0,-6 0,-2 0,-4 0,-5 -2,0 -3,-1 -3,-3 0,-2 0,-4 0,-6 0,-1 0,-3 0,-5 0,-2 0,-4 0,-6 -1,-1 -2,-3 -2,-5 0,-2 0,-4 0,-6 -8,-20 -19,-40 -36,-60 -16,-20 -37,-39 -63,-57 -27,-20 -60,-37 -97,-51 -37,-14 -80,-25 -127,-34 -2,0 -4,0 -6,0 -2,0 -3,0 -5,0 -2,0 -4,-1 -6,-1 -2,-1 -3,-3 -5,-5 -146,-31 -269,-65 -370,-102 -100,-38 -177,-76 -230,-117 -53,-41 -94,-94 -123,-158 -29,-64 -46,-138 -52,-222 0,-4 0,-7 0,-10 0,-2 0,-5 0,-6 0,-2 0,-4 0,-5 0,0 0,-2 0,-4 0,-1 0,-3 0,-5 -2,-97 18,-182 59,-256 41,-74 103,-136 185,-188 82,-49 173,-86 272,-112 100,-25 208,-38 324,-38 163,5 297,24 404,56 107,32 186,77 237,136 53,56 93,121 119,194 26,73 40,152 40,238l-561 -5c0,-30 -6,-57 -17,-83 -11,-25 -27,-48 -49,-68 -22,-20 -49,-35 -82,-45 -33,-10 -70,-15 -112,-15 -39,0 -73,4 -102,13 -29,10 -54,23 -74,42 -18,18 -32,36 -43,56 -11,19 -17,39 -17,61 0,2 0,4 0,6 0,2 0,3 0,5 0,2 0,3 0,4 0,1 0,3 0,4 4,19 11,37 22,56 11,20 26,37 44,54 20,18 44,33 72,44 29,11 61,18 98,22 20,3 41,7 63,12 21,4 43,9 65,12 22,4 44,8 66,13 22,4 45,9 68,15 77,18 151,42 222,71 71,29 140,65 205,106 64,41 113,94 145,161 33,66 50,145 50,236 0,119 -21,221 -63,306 -42,84 -106,153 -192,206 -84,51 -176,89 -278,114 -101,24 -211,37 -330,37 -144,0 -270,-14 -380,-43 -109,-28 -200,-70 -271,-127 -73,-58 -129,-130 -167,-216 -38,-86 -60,-185 -66,-299l0 -5 562 0z"/>
   <path class="fil4" d="M4396 1933c0,9 0,18 0,26 0,8 0,17 2,26 0,4 1,8 2,12 1,5 1,9 1,13 2,5 3,10 4,15 1,4 2,8 4,12 6,24 15,46 29,66 14,20 31,40 53,60 22,18 50,32 85,41 35,9 75,14 121,14 49,0 92,-5 130,-14 37,-9 68,-23 94,-41 26,-20 45,-41 59,-63 14,-22 21,-45 23,-68 0,0 0,-6 0,-6 0,0 0,-5 0,-5 0,0 -3,-3 -3,-3 0,0 0,-6 0,-6 0,0 0,-5 0,-5 0,0 0,-6 0,-6 -1,-1 -2,-5 -2,-5 0,0 0,-6 0,-6 -8,-20 -19,-40 -36,-60 -16,-20 -37,-39 -63,-57 -27,-20 -60,-37 -97,-51 -37,-14 -80,-25 -127,-34 0,0 -6,0 -6,0 0,0 -5,0 -5,0 0,0 -4,-1 -6,-1 -2,-1 -3,-3 -5,-5 -146,-31 -269,-65 -370,-102 -100,-38 -177,-76 -230,-117 -53,-41 -94,-94 -123,-158 -29,-64 -46,-138 -52,-222 0,-4 0,-10 0,-10 0,0 0,-6 0,-6 0,0 0,-5 0,-5 0,0 0,-4 0,-4 0,0 0,-5 0,-5 -2,-97 18,-182 59,-256 41,-74 103,-136 185,-188 82,-49 173,-86 272,-112 100,-25 208,-38 324,-38 163,5 297,24 404,56 107,32 186,77 237,136 53,56 93,121 119,194 26,73 40,152 40,238l-561 -5c0,-30 -6,-57 -17,-83 -11,-25 -27,-48 -49,-68 -22,-20 -49,-35 -82,-45 -33,-10 -70,-15 -112,-15 -39,0 -73,4 -102,13 -29,10 -54,23 -74,42 -18,18 -32,36 -43,56 -11,19 -17,39 -17,61 0,0 0,6 0,6 0,0 0,5 0,5 0,0 0,4 0,4 0,0 0,4 0,4 4,19 11,37 22,56 11,20 26,37 44,54 20,18 44,33 72,44 29,11 61,18 98,22 20,3 41,7 63,12 21,4 43,9 65,12 22,4 44,8 66,13 22,4 45,9 68,15 77,18 151,42 222,71 71,29 140,65 205,106 64,41 113,94 145,161 33,66 50,145 50,236 0,119 -21,221 -63,306 -42,84 -106,153 -192,206 -84,51 -176,89 -278,114 -101,24 -211,37 -330,37 -144,0 -270,-14 -380,-43 -109,-28 -200,-70 -271,-127 -73,-58 -129,-130 -167,-216 -38,-86 -60,-185 -66,-299l0 -5 562 0z"/>
   <polygon class="fil1" points="6443,597 6443,2579 5882,2579 5882,597 "/>
  </g>
 </g>
</svg>
